<?xml version="1.0" encoding="utf-8"?>
<!-- Generator: Adobe Illustrator 28.1.0, SVG Export Plug-In . SVG Version: 6.00 Build 0)  -->
<svg version="1.1" id="Layer_1" xmlns="http://www.w3.org/2000/svg" xmlns:xlink="http://www.w3.org/1999/xlink" x="0px" y="0px"
	 viewBox="0 0 85 85" style="enable-background:new 0 0 85 85;" xml:space="preserve">
<style type="text/css">
	.st0{fill:#EC008C;}
	.st1{fill:#00AEEF;}
	.st2{fill:#FFF200;}
	.st3{fill:#FFFFFF;}
	.st4{fill:#EC2125;}
	.st5{fill:none;stroke:#00AEEF;stroke-width:8;stroke-linecap:round;stroke-miterlimit:10;}
	.st6{fill:none;stroke:#ED2124;stroke-width:8;stroke-linecap:round;stroke-miterlimit:10;}
	.st7{fill:#FFFFFF;stroke:#FFFFFF;stroke-width:5.4248;stroke-miterlimit:10;}
	.st8{fill:none;stroke:#E9048B;stroke-width:6;stroke-linecap:round;stroke-miterlimit:10;}
	.st9{fill:#323232;}
	.st10{fill:none;stroke:#29AAE1;stroke-width:8;stroke-linecap:round;stroke-miterlimit:10;}
	.st11{fill:none;stroke:#EB2426;stroke-width:8;stroke-linecap:round;stroke-miterlimit:10;}
	.st12{fill:#F0EFEF;}
</style>
<g>
	<polygon points="101.8,9.8 101.8,76 134.9,42.9 	"/>
	<polygon class="st0" points="172.2,76 172.2,9.8 139.1,42.9 	"/>
	<polygon class="st1" points="170.1,7.7 103.9,7.7 137,40.8 	"/>
	<polygon class="st2" points="103.9,78.1 170.1,78.1 137,45 	"/>
	<path class="st3" d="M97.2,3.1v79.6h79.6V3.1H97.2z M170.1,7.7L137,40.8L103.9,7.7H170.1z M101.8,9.8l33.1,33.1L101.8,76V9.8z
		 M103.9,78.1L137,45l33.1,33.1H103.9z M172.2,76l-33.1-33.1l33.1-33.1L172.2,76L172.2,76z"/>
</g>
<g>
	<path d="M-98.8,3.1v79.6h79.6V3.1H-98.8z M-26.8,75.1h-64.3V10.8h64.3C-26.8,10.8-26.8,75.1-26.8,75.1z"/>
	<rect x="-85.1" y="13.8" width="7.6" height="58.3"/>
	<rect x="-68.9" y="13.8" width="10.9" height="58.3"/>
	<rect x="-49.3" y="13.8" width="16.6" height="58.3"/>
</g>
<g>
	<g>
		<rect x="200.4" y="25.1" class="st1" width="55.6" height="55.6"/>
	</g>
	<rect x="200.4" y="8.5" class="st4" width="55.6" height="5.9"/>
	<rect x="200.4" y="4.3" class="st4" width="3.5" height="14.4"/>
	<rect x="252.4" y="4.3" class="st4" width="3.5" height="14.4"/>
	<rect x="265.5" y="25.2" class="st4" width="5.9" height="55.6"/>
	<rect x="261.2" y="25.1" class="st4" width="14.4" height="3.5"/>
	<rect x="261.3" y="77.2" class="st4" width="14.4" height="3.5"/>
</g>
<g>
	<path class="st5" d="M65,20.1c5.3,5.6,8.6,13.2,8.6,21.5c0,17.2-13.9,31.1-31.1,31.1S11.4,58.8,11.4,41.6c0-8.3,3.3-15.9,8.6-21.5"
		/>
	<line class="st6" x1="55.3" y1="17.3" x2="33.1" y2="17.3"/>
	<line class="st6" x1="33.1" y1="39.4" x2="33.1" y2="17.3"/>
	<line class="st6" x1="33.1" y1="17.3" x2="62" y2="46.2"/>
</g>
<g>
	<rect x="-178.3" y="24.4" class="st7" width="33.1" height="37.3"/>
	<g>
		<g>
			<line class="st8" x1="-180.2" y1="78.6" x2="-180.2" y2="70.9"/>
			<line class="st8" x1="-143.2" y1="78.6" x2="-143.2" y2="70.9"/>
		</g>
		<g>
			<line class="st8" x1="-180.2" y1="15.1" x2="-180.2" y2="7.5"/>
			<line class="st8" x1="-143.2" y1="15.1" x2="-143.2" y2="7.5"/>
		</g>
	</g>
	<g>
		<g>
			<line class="st8" x1="-137" y1="22.6" x2="-129.4" y2="22.6"/>
			<line class="st8" x1="-137" y1="63.5" x2="-129.4" y2="63.5"/>
		</g>
		<g>
			<line class="st8" x1="-194.1" y1="22.6" x2="-186.4" y2="22.6"/>
			<line class="st8" x1="-194.1" y1="63.5" x2="-186.4" y2="63.5"/>
		</g>
	</g>
</g>
<rect x="-109.8" y="170.9" class="st9" width="285.9" height="118.6"/>
<g>
	<path class="st10" d="M-33.4,190.1c5.3,5.6,8.6,13.2,8.6,21.5c0,17.2-13.9,31.1-31.1,31.1S-87,228.8-87,211.6
		c0-8.3,3.3-15.9,8.6-21.5"/>
	<line class="st11" x1="-43.1" y1="187.3" x2="-65.3" y2="187.3"/>
	<line class="st11" x1="-65.3" y1="209.4" x2="-65.3" y2="187.3"/>
	<line class="st11" x1="-65.3" y1="187.3" x2="-36.4" y2="216.2"/>
</g>
<g>
	
		<text transform="matrix(1.0168 0 0 1 -9.4682 206.2205)" style="fill:none;stroke:#FFFFFF;stroke-width:2.0167; font-family:'DINRoundPro-Bold'; font-size:23.5565px;">KREASI UTAMA</text>
	
		<text transform="matrix(1.0168 0 0 1 -9.4682 206.2205)" style="fill:#2E3191; font-family:'DINRoundPro-Bold'; font-size:23.5565px;">KREASI UTAMA</text>
</g>
<g>
	
		<text transform="matrix(1.0168 0 0 1 18.3689 229.5787)" style="fill:none;stroke:#FFFFFF;stroke-width:1.6044; font-family:'DINRoundPro-Bold'; font-size:18.74px;">©mustthank</text>
	
		<text transform="matrix(1.0168 0 0 1 18.3689 229.5787)" style="fill:#2E3191; font-family:'DINRoundPro-Bold'; font-size:18.74px;">©mustthank</text>
	
		<text transform="matrix(1.0168 0 0 1 18.3689 229.5787)" style="fill:#231F20; font-family:'DINRoundPro-Bold'; font-size:18.74px;">©mustthank</text>
</g>
<rect x="-109.8" y="302.2" class="st12" width="285.9" height="118.6"/>
<g>
	<g>
		<path class="st10" d="M-33.4,321.4c5.3,5.6,8.6,13.2,8.6,21.5c0,17.2-13.9,31.1-31.1,31.1S-87,360.1-87,342.9
			c0-8.3,3.3-15.9,8.6-21.5"/>
		<line class="st11" x1="-43.1" y1="318.6" x2="-65.3" y2="318.6"/>
		<line class="st11" x1="-65.3" y1="340.7" x2="-65.3" y2="318.6"/>
		<line class="st11" x1="-65.3" y1="318.6" x2="-36.4" y2="347.5"/>
	</g>
	<g>
		
			<text transform="matrix(1.0168 0 0 1 -9.4682 337.5146)" style="fill:none;stroke:#FFFFFF;stroke-width:2.0167; font-family:'DINRoundPro-Bold'; font-size:23.5565px;">KREASI UTAMA</text>
		
			<text transform="matrix(1.0168 0 0 1 -9.4682 337.5146)" style="fill:#2E3191; font-family:'DINRoundPro-Bold'; font-size:23.5565px;">KREASI UTAMA</text>
	</g>
	<g>
		
			<text transform="matrix(1.0168 0 0 1 18.3689 360.8729)" style="fill:none;stroke:#FFFFFF;stroke-width:1.6044; font-family:'DINRoundPro-Bold'; font-size:18.74px;">©mustthank</text>
		
			<text transform="matrix(1.0168 0 0 1 18.3689 360.8729)" style="fill:#2E3191; font-family:'DINRoundPro-Bold'; font-size:18.74px;">©mustthank</text>
		
			<text transform="matrix(1.0168 0 0 1 18.3689 360.8729)" style="fill:#231F20; font-family:'DINRoundPro-Bold'; font-size:18.74px;">©mustthank</text>
	</g>
</g>
</svg>
